<?xml version="1.0" encoding="iso-8859-1"?>
<!-- Generator: Adobe Illustrator 18.1.1, SVG Export Plug-In . SVG Version: 6.00 Build 0)  -->
<svg version="1.1" id="Capa_1" xmlns="http://www.w3.org/2000/svg" xmlns:xlink="http://www.w3.org/1999/xlink" x="0px" y="0px"
	 viewBox="0 0 42.164 42.164" style="enable-background:new 0 0 42.164 42.164;" xml:space="preserve" fill="#2643e9" fill-opacity="0.08">
<g>
	<g>
		<path  d="M35.684,6.389H6.478C2.906,6.389,0,9.295,0,12.868v16.429c0,3.572,2.906,6.479,6.478,6.479h29.207
			c3.572,0,6.479-2.906,6.479-6.479V12.868C42.164,9.296,39.257,6.389,35.684,6.389z M39.164,29.297h-0.002
			c0,1.918-1.561,3.479-3.479,3.479H6.477c-1.918,0-3.478-1.562-3.478-3.479V12.868c0-1.918,1.56-3.479,3.478-3.479h29.207
			c1.918,0,3.479,1.561,3.479,3.479L39.164,29.297L39.164,29.297z"/>
		<circle cx="21.081" cy="21.081" r="8.476"/>
	</g>
</g>
<g>
</g>
<g>
</g>
<g>
</g>
<g>
</g>
<g>
</g>
<g>
</g>
<g>
</g>
<g>
</g>
<g>
</g>
<g>
</g>
<g>
</g>
<g>
</g>
<g>
</g>
<g>
</g>
<g>
</g>
</svg>
